<svg id="레이어_1" data-name="레이어 1" xmlns="http://www.w3.org/2000/svg" viewBox="0 0 246.49 123.91"><defs><style>.cls-1{fill:#fff;}</style></defs><title>대지 1new</title><path class="cls-1" d="M72.77,35.87,68.64,46h7.41c2.78,0,4.17,1.21,4.17,3.65a4.57,4.57,0,0,1-1.83,3.85,8.14,8.14,0,0,1-5.06,1.4H65.7A9.07,9.07,0,0,1,60,53.28a5.43,5.43,0,0,1-2.12-4.52,10.28,10.28,0,0,1,.86-3.88l.59-1.45,3.09-7.56H50.51L43.24,53.71Q35.77,72.18,20.9,72.18a18,18,0,0,1-13-4.94A16.71,16.71,0,0,1,2.77,54.68a22.8,22.8,0,0,1,3-11.25,28.11,28.11,0,0,1,8.41-9.23,38,38,0,0,1,10.67-5.14,40,40,0,0,1,12-1.9L42.09,27l1.64,0L51,9.14l.41-1.08q1.86-4.47,5.88-4.47a4.44,4.44,0,0,1,3.06,1.1,3.46,3.46,0,0,1,1.22,2.66,11.42,11.42,0,0,1-1,3.84L54.12,27H66L73.18,9.29l.45-1.12q1.89-4.57,6-4.58a4.22,4.22,0,0,1,3,1.12,3.56,3.56,0,0,1,1.23,2.75,12.1,12.1,0,0,1-1.08,4L76.38,27h3.88q4.13,0,4.13,3.65a4.59,4.59,0,0,1-1.83,3.86,8.07,8.07,0,0,1-5,1.39Zm-32.65,0h-2q-11,0-17.62,5a20.56,20.56,0,0,0-5.39,6,13.19,13.19,0,0,0-2,6.67A9.09,9.09,0,0,0,15.47,60a7.7,7.7,0,0,0,5.92,2.55q7.89,0,13.07-12.77Z"/><path class="cls-1" d="M94.74,44q0,2.79,4.21,2.79H110c3.12,0,4.69,1.11,4.69,3.31A4.18,4.18,0,0,1,113,53.67a7.43,7.43,0,0,1-4.63,1.27H97.87q-5.88,0-9-2.91c-2-1.93-3.07-4.76-3.07-8.49a17.57,17.57,0,0,1,4.86-12.4,15.29,15.29,0,0,1,11.56-5.21,11.59,11.59,0,0,1,7.84,2.55,8.45,8.45,0,0,1,3,6.72,8.06,8.06,0,0,1-4.1,7.45Q106.7,44,102.19,44Zm1.79-6.78h4.09c2.66,0,3.95-.58,3.88-1.75s-.94-2-2.57-2Q98.5,33.53,96.53,37.25Z"/><path class="cls-1" d="M126.09,46.82H130c3.15,0,4.73,1.11,4.73,3.31a4.18,4.18,0,0,1-1.66,3.54,7.43,7.43,0,0,1-4.63,1.27h-6.7a6.71,6.71,0,0,1-4.36-1.31,4.25,4.25,0,0,1-1.6-3.5,12.21,12.21,0,0,1,1.08-3.83l15-37,.41-1c1.14-2.78,3-4.17,5.47-4.17a3.76,3.76,0,0,1,2.67,1,3.35,3.35,0,0,1,1.1,2.5,7.05,7.05,0,0,1-.56,2.53l-.41,1Z"/><path class="cls-1" d="M146.35,46.82h3.91c3.15,0,4.73,1.11,4.73,3.31a4.2,4.2,0,0,1-1.66,3.54,7.46,7.46,0,0,1-4.64,1.27H142a6.71,6.71,0,0,1-4.36-1.31,4.28,4.28,0,0,1-1.6-3.5,12.21,12.21,0,0,1,1.08-3.83l15-37,.41-1q1.71-4.17,5.47-4.17a3.74,3.74,0,0,1,2.66,1,3.35,3.35,0,0,1,1.1,2.5,7.05,7.05,0,0,1-.56,2.53l-.41,1Z"/><path class="cls-1" d="M173.86,25.93a12.11,12.11,0,0,1,8.88,3.43,11.71,11.71,0,0,1,3.49,8.71A18.56,18.56,0,0,1,184.4,46a17.27,17.27,0,0,1-4.73,6.28,11.44,11.44,0,0,1-4,2.1,22.36,22.36,0,0,1-5.79.58c-4,0-6.78-.49-8.19-1.45q-5-3.43-5-10.13a16.86,16.86,0,0,1,5.1-12.25A16.38,16.38,0,0,1,173.86,25.93ZM173,33.86a6.54,6.54,0,0,0-5,2.72,9.15,9.15,0,0,0-2.27,6c0,2.88,1.62,4.31,4.84,4.31a5.47,5.47,0,0,0,4.36-1.75,9.59,9.59,0,0,0,2.53-6.55,4.77,4.77,0,0,0-1.23-3.42A4.19,4.19,0,0,0,173,33.86Z"/><path class="cls-1" d="M127.51,76.17,104.57,115.6Q102,120,98.35,120A5.44,5.44,0,0,1,94,118.27a7.23,7.23,0,0,1-1.53-4.94l1-26.69-13.56,29c-1.36,2.93-3.34,4.4-5.92,4.4a5.55,5.55,0,0,1-4.37-1.77,7.06,7.06,0,0,1-1.58-4.9L67.26,87.6q0-6.81-1.17-9.18t-4.56-2.36q-3,0-6,3.18t-3,6.43a5.75,5.75,0,0,0,6.07,6.07c.52,0,1,0,1.48,0l.9,0c3,0,4.54,1.26,4.54,3.76A4.84,4.84,0,0,1,63,99.57a11.68,11.68,0,0,1-6.48,1.66,13.23,13.23,0,0,1-10-4.13,14.54,14.54,0,0,1-3.94-10.46q0-7.71,6.27-13.8a19.88,19.88,0,0,1,14.21-6.09q7.26,0,10.51,4.27t3.26,13.64l0,2.94.22,13L90.39,71.7q2.23-5,6.81-5a5.81,5.81,0,0,1,4.21,1.55,5.48,5.48,0,0,1,1.6,4.11l0,.41-.67,28.34L119.06,72.3l.78-1.45a6.75,6.75,0,0,1,6.29-3.58h7.26q5.18,0,5.18,3.65a4.59,4.59,0,0,1-1.83,3.86,8.14,8.14,0,0,1-5.06,1.39Z"/><path class="cls-1" d="M135.19,89.09a12.15,12.15,0,0,1,8.88,3.43,11.71,11.71,0,0,1,3.49,8.71,18.53,18.53,0,0,1-1.83,7.91,17.27,17.27,0,0,1-4.73,6.28,11.28,11.28,0,0,1-4,2.1,22.36,22.36,0,0,1-5.79.58c-4.05,0-6.78-.49-8.19-1.45q-5-3.44-5-10.13a16.86,16.86,0,0,1,5.1-12.25A16.38,16.38,0,0,1,135.19,89.09ZM134.3,97a6.54,6.54,0,0,0-5,2.72,9.15,9.15,0,0,0-2.27,6q0,4.32,4.84,4.32a5.5,5.5,0,0,0,4.36-1.75,9.63,9.63,0,0,0,2.53-6.56,4.78,4.78,0,0,0-1.23-3.42A4.21,4.21,0,0,0,134.3,97Z"/><path class="cls-1" d="M160.63,97.77l-1.26,3.13q-1.71,4.17-4.47,4.17a4,4,0,0,1-2.79-1,3.2,3.2,0,0,1-1.12-2.49,9.31,9.31,0,0,1,.82-2.91L156,88.27c1-2.5,2.45-3.76,4.32-3.76a3.13,3.13,0,0,1,3.38,2.61l.3,1.15a1.6,1.6,0,0,0,.67,1.12,6.39,6.39,0,0,0,2.2.22h8.71c3.25,0,4.88,1.15,4.88,3.43q0,4.72-6.18,4.73l-.41.37q-5.92,5.65-5.92,8.75t3.42,3.09h4.7q4.72,0,4.73,3.28a4.24,4.24,0,0,1-1.66,3.57,7.46,7.46,0,0,1-4.64,1.27h-7.3a7.89,7.89,0,0,1-6.08-2.57,9.43,9.43,0,0,1-2.37-6.67A10.87,10.87,0,0,1,160,103.8a30.65,30.65,0,0,1,4.47-6Z"/><path class="cls-1" d="M192.43,110h3.91c3.15,0,4.73,1.11,4.73,3.31a4.18,4.18,0,0,1-1.66,3.54,7.43,7.43,0,0,1-4.63,1.27h-6.7a6.71,6.71,0,0,1-4.36-1.3,4.29,4.29,0,0,1-1.6-3.51,12.21,12.21,0,0,1,1.08-3.83l15-37,.41-1c1.14-2.78,3-4.17,5.47-4.17a3.73,3.73,0,0,1,2.67,1,3.3,3.3,0,0,1,1.09,2.49,7,7,0,0,1-.55,2.53l-.41,1Z"/><path class="cls-1" d="M228.29,110h4.24c3.16,0,4.73,1.11,4.73,3.31a4.19,4.19,0,0,1-1.67,3.54A7.48,7.48,0,0,1,231,118.1h-5a4.53,4.53,0,0,1-4.24-2.38,7.19,7.19,0,0,1-5.1,2.38h-4.73a8.33,8.33,0,0,1-6.61-2.83,11,11,0,0,1-2.48-7.52,19.4,19.4,0,0,1,4.9-12.92q4.89-5.74,11-5.74a8.85,8.85,0,0,1,7.19,3.24L234.17,72q2.13-5.2,5.92-5.21a3.84,3.84,0,0,1,2.72,1,3.26,3.26,0,0,1,1.12,2.51,7.44,7.44,0,0,1-.56,2.61l-.45,1Zm-13.63.19h1.42a3.26,3.26,0,0,0,3.38-2l2.8-6.89a5.78,5.78,0,0,0,.52-1.94,2.38,2.38,0,0,0-.95-1.89,3.6,3.6,0,0,0-2.37-.79c-1.93,0-3.74,1.08-5.41,3.24a11.19,11.19,0,0,0-2.52,7C211.53,109.06,212.58,110.17,214.66,110.17Z"/></svg>