<svg id="레이어_1" data-name="레이어 1" xmlns="http://www.w3.org/2000/svg" viewBox="0 0 113.39 113.39">
<path fill="current" d="M111.19,12.09c-1.37,21-8,39.78-22.4,55.41a34.84,34.84,0,0,1-2.88,2.82,4.16,4.16,0,0,0-1.46,3.88c.31,2.85.54,5.71.81,8.56q1,11-8.16,17.1c-6,4-11.92,8-17.91,12-2.76,1.83-5.58,1.58-7.74-.56a5.57,5.57,0,0,1-1.66-3.58c-.47-5.74-.91-11.49-1.36-17.23-.13-1.69-.37-2-2.06-2.24a24.06,24.06,0,0,1-11.63-4.52C29.89,80,27.35,75,26.47,69c-.39-2.59-.32-2.6-3-2.76-5.11-.32-10.23-.58-15.32-1s-7.54-5-4.86-9.35c4-6.57,8.11-13.08,12.41-19.45a15.75,15.75,0,0,1,13.41-7.15A82.22,82.22,0,0,1,40,30.12a4.6,4.6,0,0,0,4.39-1.6c8.25-9,18.39-15.11,29.72-19.38a85.83,85.83,0,0,1,27.36-5.7,58.84,58.84,0,0,1,7.46.58,1.68,1.68,0,0,1,1.61,1.63C110.73,7.81,111,10,111.19,12.09ZM77.63,24.71A12.48,12.48,0,0,0,64.89,37.09,12.45,12.45,0,1,0,77.63,24.71Z"/>
</svg>