<svg id="레이어_1" data-name="레이어 1" xmlns="http://www.w3.org/2000/svg" viewBox="0 0 113.39 113.39">
<path fill="current" d="M107.65,46.84A38.16,38.16,0,0,1,106.21,51a44.45,44.45,0,0,1-6.91,9.81c-3.16,3.67-6.44,7.22-9.64,10.86a1.75,1.75,0,0,0-.36,1.2c.79,7.45,1.86,14.89,1.61,22.41a24.84,24.84,0,0,1-.92,6c-1,3.39-3.53,4.83-7,4.44a36.77,36.77,0,0,1-10.46-3c-4.83-2.07-9.59-4.29-14.36-6.48a1.9,1.9,0,0,0-1.75,0c-5.93,2.66-11.84,5.37-17.83,7.87A29.78,29.78,0,0,1,32,105.8c-4.59.78-7.16-1.16-8-5.79a44.82,44.82,0,0,1-.29-11.51c.38-5,.95-10.08,1.47-15.12a2.64,2.64,0,0,0-.79-2.27c-4.92-5.35-10-10.61-14-16.66A26.89,26.89,0,0,1,7.4,48.69c-1-2.75-.12-5,2.21-6.76a22.66,22.66,0,0,1,8.33-3.68c6.06-1.48,12.15-2.81,18.23-4.16a2.55,2.55,0,0,0,1.94-1.36c3.33-6.16,6.54-12.39,10.66-18.07A31.5,31.5,0,0,1,53.4,9.57c2.4-2.13,5-2.21,7.42-.16a27.93,27.93,0,0,1,4.69,5c4.2,5.7,7.45,12,10.8,18.21a2.64,2.64,0,0,0,2.08,1.47C85.3,35.49,92.26,36.72,99,39a19.26,19.26,0,0,1,6.21,3.14,5.44,5.44,0,0,1,2.24,4.6Z"/></svg>